<svg version="1.1" id="Capa_1" xmlns="http://www.w3.org/2000/svg" xmlns:xlink="http://www.w3.org/1999/xlink" x="0px" y="0px" style="fill: white;" xml:space="preserve" viewBox="0 0 80.13 125">
<g>
	<path d="M34.28,17.61H11.86v47.32h21.89c11.14,0.14,19.43-1.64,24.8-5.43c5.5-3.92,8.17-10.04,8.17-18.22
		c0-8.19-2.62-14.26-7.99-18.06C53.37,19.45,45.19,17.61,34.28,17.61z M66.56,66.6c-5.42,4.28-12.43,6.95-21.1,8l-2.33,0.28
		l36.63,46.63H67.07L30.71,75.06H27.5H11.86v46.66H0V7.55h33.31c7.14,0,10.88,0.16,13.53,0.47c2.6,0.33,4.11,0.82,6.77,1.48
		c5.16,1.16,8.7,3.12,12.42,5.96c3.79,2.8,6.75,6.42,8.88,10.88c2.13,4.44,3.19,9.38,3.19,14.77C78.1,51.94,74.24,60.41,66.56,66.6z
		"></path>
</g>
</svg>