<svg version="1.1" id="Capa_1" xmlns="http://www.w3.org/2000/svg" xmlns:xlink="http://www.w3.org/1999/xlink" x="0px" y="0px" viewBox="0 0 560.13 192" style="fill: #fff;" xml:space="preserve">
<g>
	<path d="M34.28,17.61H11.86v47.32h21.89c11.14,0.14,19.43-1.64,24.8-5.43c5.5-3.92,8.17-10.04,8.17-18.22
		c0-8.19-2.62-14.26-7.99-18.06C53.37,19.45,45.19,17.61,34.28,17.61z M66.56,66.6c-5.42,4.28-12.43,6.95-21.1,8l-2.33,0.28
		l36.63,46.63H67.07L30.71,75.06H27.5H11.86v46.66H0V7.55h33.31c7.14,0,10.88,0.16,13.53,0.47c2.6,0.33,4.11,0.82,6.77,1.48
		c5.16,1.16,8.7,3.12,12.42,5.96c3.79,2.8,6.75,6.42,8.88,10.88c2.13,4.44,3.19,9.38,3.19,14.77C78.1,51.94,74.24,60.41,66.56,66.6z
		"></path>
	<path d="M172.12,64.45c0-31.68,26.18-57.47,57.97-57.47c19.41,0,33.78,7.8,48.04,25.82l0.48,0.59l-8.1,8.38l-1.27-1.68
		c-4.65-6.16-6.97-8.75-10.11-11.29c-7.76-6.84-18.79-10.84-29.36-10.84c-25.04,0-46.21,21.41-46.21,46.64
		c0,25.07,20.82,45.86,45.89,45.86c14.88,0,30.45-8.19,37.22-19.46c2.66-4.24,3.94-8.68,4.38-16.18h-37.4v-10.8h49.44v2.18
		c0,14.64-1.63,22.16-6.9,30.64c-9.26,14.97-27.98,24.58-47.06,24.58C198.11,121.43,172.12,95.46,172.12,64.45z"></path>
	<polygon points="464.2,74.81 419.55,74.81 419.55,111.52 465.18,111.52 465.18,121.91 408.65,121.91 408.65,7.89 465.18,7.89 
		465.18,18.28 419.55,18.28 419.55,64.06 464.2,64.06 	"></polygon>
	<path d="M556.32,65.15c0,15.51-5.97,30.22-16.77,40.83c-10.99,10.99-24.21,15.93-41.67,15.93h-23.72V7.89h23.72
		c17.62,0,30.69,4.93,41.67,15.74C550.53,34.42,556.32,48.97,556.32,65.15z M485.06,18.28v93.24h12.66
		c27.75,0,47.38-19.34,47.38-46.54c0-27.53-19.47-46.7-47.38-46.7H485.06z"></path>
	<path d="M289.63,64.45c0-31.68,26.19-57.47,57.97-57.47c19.41,0,33.79,7.8,48.05,25.82l0.48,0.59l-8.07,8.38l-1.3-1.68
		c-4.65-6.16-6.96-8.75-10.11-11.29c-7.76-6.84-18.8-10.84-29.36-10.84c-25.05,0-46.19,21.41-46.19,46.64
		c0,25.07,20.79,45.86,45.86,45.86c14.9,0,30.48-8.19,37.23-19.46c2.66-4.24,3.94-8.68,4.37-16.18h-37.39v-10.8h49.45v2.18
		c0,14.64-1.64,22.16-6.9,30.64c-9.28,14.97-27.98,24.58-47.09,24.58C315.65,121.43,289.63,95.46,289.63,64.45z"></path>
	<path d="M545.8,4.17v10.92h1.37v-4.61h2.73c2.49,0,2.79,0.87,2.79,2.6c0.07,1.36,0.14,1.7,0.35,2.01h1.38
		c-0.26-0.43-0.26-0.66-0.37-2.52c-0.04-1.39-0.32-2.3-1.82-2.71V9.81c1.48-0.37,2.04-1.44,2.04-2.65c0-2.99-3.19-2.99-3.87-2.99
		H545.8z M547.16,5.46h3.02c0.7,0,2.68,0,2.68,1.75c0,2.02-2.22,2.02-2.94,2.02h-2.76V5.46z M549.9,0c-5.38,0-9.57,4.33-9.57,9.56
		c0,5.22,4.2,9.54,9.57,9.54c5.2,0,9.52-4.25,9.52-9.54C559.42,4.32,555.2,0,549.9,0z M549.87,1.27c4.63,0,8.19,3.79,8.19,8.28
		c0,4.6-3.69,8.26-8.19,8.26c-4.58,0-8.18-3.74-8.18-8.26C541.69,5.06,545.22,1.27,549.87,1.27z"></path>
	<polygon points="132.51,6.37 79.67,121.53 92.51,121.53 109.07,85.09 111.32,79.7 122.06,56.29 122.14,56.31 132.49,33.51 
		147.65,67.27 147.63,67.27 158.28,90.99 158.26,90.99 171.96,121.53 184.98,121.53 	"></polygon>
	<g>
		<path d="M369.35,164.19c0.07-0.12,0.15-0.25,0.22-0.37c-0.15,0.1-0.29,0.2-0.43,0.29C369.21,164.14,369.28,164.17,369.35,164.19z"></path>
		<path d="M401.91,168.78c-0.07-0.15-0.3-0.29-0.28-0.41c0.38-2.29-1.39-3.12-2.84-4.11c-1.41-0.96-2.94-1.75-4.32-2.76
			c-0.41-0.3-0.81-1.23-0.64-1.6c1.13-2.42,3.05-4.13,5.31-5.72c0.19,3.23,0.98,4.52,2.23,4.53c0.91-1.76,1.73-3.37,2.57-4.98
			c0.5-0.96,1.16-1.89,1.48-2.91c0.21-0.67,0.6-1.51-0.31-2.24c-1.72-1.39-3.88-1.67-5.55-0.25c-2.18,1.84-4.32,3.75-6.22,5.86
			c-0.9,1.01-1.5,2.49-1.7,3.85c-0.17,1.11-0.4,1.98-1.2,2.73c-0.64,0.6-1.24,1.25-1.8,1.93c-0.41,0.49-0.71,1.06-1.06,1.59
			c0.09,0.05,0.18,0.11,0.27,0.17c1.29-1.47,2.57-2.94,3.87-4.42c0.15,0.38,0.27,0.71,0.39,1.04c0.65,1.72,1.54,3.15,3.36,3.96
			c1.12,0.49,2.06,1.39,3.17,2.17c-2.44,2.42-5.58,2.78-8.48,3.9c0.32,0.11,0.48,0.17,0.64,0.23c-0.01,0.06-0.03,0.12-0.04,0.18
			c-0.95,0.07-1.9,0.13-2.85,0.2c0-0.07-0.01-0.15-0.01-0.23c0.29-0.09,0.58-0.18,0.88-0.27c-0.18-0.2-0.34-0.2-0.49-0.25
			c-0.15-0.05-0.28-0.15-0.25-0.13c-0.07-3.12,2.69-4.29,4.37-6.53c-1.03,0.19-1.71,0.32-2.61,0.48c0.75-1.21,1.4-2.26,2.05-3.31
			c-0.11-0.08-0.21-0.17-0.32-0.25c-2,3.15-5.02,4.98-8.37,6.77c0-0.87-0.13-1.54,0.02-2.14c0.61-2.45,1.27-4.88,2-7.29
			c0.61-2.01,1.36-3.96,2.01-5.95c0.09-0.28,0.03-0.86-0.13-0.93c-0.89-0.39-1.83-0.77-2.78-0.94c-0.21-0.03-0.58,0.79-0.88,1.22
			c-1.57-3.28-4.2-3.53-6.47-0.63c-0.27,0.34-0.54,0.69-0.76,1.07c-2.22,3.82-4.42,7.64-6.62,11.46c0.19-0.13,0.37-0.25,0.56-0.38
			c-0.03,0.32-0.16,0.49-0.31,0.64c-1.49,1.49-2.99,2.98-4.5,4.44c-1.54,1.5-3.04,3.06-4.7,4.43c-1.57,1.29-2.79,2.91-4.39,4.19
			c-2.06,1.66-4.22,2.8-6.78,3.18c-2.12,0.33-3.89-0.18-5.19-2.18c-1.21-1.87-1.65-3.94-1.5-5.96c0.21-2.86,0.66-5.79,1.64-8.47
			c3.14-8.62,7.18-16.77,13.43-23.67c2.36-2.6,4.74-5.06,8.61-6.09c0.1,1.1,0.32,2.12,0.23,3.11c-0.13,1.43-0.5,2.84-0.77,4.26
			c0.01-0.01,0.02-0.02,0.03-0.03c0,0,0-0.01,0.01-0.01c0,0,0,0,0,0c0.39-0.43,0.78-0.87,1.16-1.31c-0.47,3.87-2.43,7.09-4.28,10.36
			c0.39-0.97,0.8-1.93,1.18-2.91c0.63-1.62,1.26-3.25,1.85-4.89c0.13-0.39,0.07-0.84,0.09-1.26c0,0,0,0,0,0
			c-1.95,4.62-3.89,9.24-5.84,13.87c2.99,1.01,2.24,1.41,4.08-1.32c0.07-0.11,0.15-0.22,0.2-0.34c1.77-4.56,3.67-9.08,5.24-13.7
			c0.83-2.45,0.77-5.1-1.81-6.69c-2.62-1.62-4.63-2.15-7.81,0.2c-2.83,2.07-5.16,4.65-7.12,7.43c-2.98,4.21-5.57,8.71-8.05,13.24
			c-2.87,5.24-4.64,10.89-4.78,16.91c-0.04,2-0.06,4.15,0.6,5.98c1.56,4.23,6.63,6.45,10.95,5.15c3.97-1.2,7.18-3.66,10.04-6.49
			c2.09-2.07,3.8-4.53,5.67-6.82c-1.06,0.9-2.11,1.82-3.18,2.71c-0.7,0.57-1.46,1.07-2.16,1.64c-0.72,0.59-1.4,1.23-2.1,1.85
			c-0.09-0.1-0.19-0.21-0.29-0.32c3.24-3.1,6.48-6.2,9.71-9.3c0.06,0.02,0.11,0.03,0.17,0.06c-0.3,0.65-0.61,1.3-0.91,1.95
			c0.22,1.67-0.65,3.34,0.82,5.03c1.39,1.59,3.14,2.1,4.46,0.39c1.44-1.88,2.73-3.86,4.11-5.79c0.68-0.95,1.4-1.87,2.19-2.93
			c0.95,4.44,2.38,6.09,5.23,6.2c0.21,0.75,0.59,1.5,0.6,2.26c0.02,1.45,0.97,1.89,2.05,2.14c0.84,0.18,1.75,0.25,2.6,0.13
			c1.33-0.19,2.78-0.33,3.92-0.97c1.05-0.59,2.65,0.1,3.22-1.43c0.01-0.01,0.07,0.01,0.11,0.01c1.49-0.11,2.56-0.96,3.51-1.84
			c-0.2-0.47-0.36-0.89-0.61-1.48c0.58,0.12,0.86,0.17,1.22,0.25C401.94,169.01,401.96,168.89,401.91,168.78z M392.64,158.07
			c0.08-1.59,2.07-4.3,3.37-4.47C394.86,155.12,393.76,156.59,392.64,158.07z M346.82,153.3c0.14,0.06,0.27,0.13,0.41,0.19
			c-0.86,1.8-1.73,3.61-2.59,5.42c-0.17-0.08-0.33-0.16-0.5-0.25C345.04,156.87,345.93,155.08,346.82,153.3z M373.36,167.81
			c-0.55,0.7-0.93,1.2-1.32,1.69c-0.18-0.13-0.37-0.26-0.55-0.39c1.64-3.27,3.23-6.56,4.93-9.79c0.56-1.09,1.3-2.1,2.1-3.03
			c0.4-0.46,1.13-0.65,1.8-0.81c-0.38,0.74-1.83,1.03-0.51,2.16c0.08,0.06-0.06,0.48-0.18,0.69c-0.43,0.74-0.89,1.46-1.18,2.32
			c0.88-1.16,1.75-2.32,2.63-3.48C381.11,159.01,374.29,167.63,373.36,167.81z M381.59,165.64c-0.13-0.02-0.25-0.05-0.38-0.07
			c0.28-1.36,0.55-2.71,0.83-4.05c0.14,0.03,0.28,0.07,0.42,0.1C382.18,162.96,381.88,164.3,381.59,165.64z M389.52,173.57
			c1.63-0.09,3.09-0.44,3.33-2.09c1.11,0,2.05,0,3.1,0c0.33-1.54,0.87-0.23,1.46-0.22C395.18,172.81,391.77,174.44,389.52,173.57z"></path>
		<path d="M158.95,155.88c1.82-0.26,3.63-0.58,5.45-0.74c1.67-0.15,3.32-0.68,5.02-0.28c0.07,0.02,0.18-0.01,0.25-0.06
			c0.28-0.21,0.76-0.42,0.77-0.65c0.02-0.36-0.18-0.93-0.46-1.09c-0.55-0.31-1.23-0.55-1.86-0.56c-1.79-0.03-3.59,0.09-5.39,0.13
			c-0.85,0.02-1.71,0-2.76,0c0.26-0.61,0.4-1,0.58-1.38c1.81-3.85,3.62-7.69,5.42-11.54c0.42-0.91-0.06-1.68-1.23-2.28
			c-1.02-0.52-1.26,0.12-1.6,0.84c-2.15,4.74-4.33,9.48-6.51,14.21c-0.17,0.37-0.43,0.93-0.74,0.99c-2.42,0.48-4.87,0.87-7.43,1.3
			c0.86-2.11,1.64-4.07,2.45-6.02c1.15-2.74,2.36-5.46,3.45-8.22c0.13-0.33-0.23-1.21-0.53-1.29c-0.69-0.2-1.59-1.19-2.17-0.17
			c-1.51,2.66-2.85,5.42-4.24,8.15c-0.12,0.23-0.08,0.56-0.07,0.83c0.01,0.4,0.21,0.86,0.07,1.21c-0.73,1.97-1.49,3.93-2.36,5.84
			c-0.21,0.46-0.78,0.9-1.28,1.04c-2.19,0.6-4.43,1.05-6.62,1.64c-2.06,0.55-1.99,0.59-1.63,2.65c0.17,0.97,0.68,1.16,1.46,0.95
			c1.14-0.3,2.26-0.69,3.38-1.06c0.91-0.3,1.82-0.62,3.11-1.06c-0.72,1.99-1.04,3.76-1.97,5.1c-0.51,0.73-2.06,0.73-3.14,1.07
			c-0.21,0.06-0.41,0.16-0.62,0.2c-0.95,0.2-1.14,0.86-1.05,1.68c0.17,1.44,1.09,1.92,3.13,1.62c-0.53,1.83-1.13,3.52-1.5,5.27
			c-0.31,1.48-0.35,3.02,1.11,4.05c0.26,0.19,0.94,0.27,1.02,0.14c0.66-1.04,1.24-2.14,1.84-3.22c-0.1-0.05-0.19-0.09-0.29-0.14
			c-0.46,0.57-0.91,1.14-1.37,1.71c-0.04-0.64,0.23-1.07,0.38-1.54c0.75-2.33,1.44-4.68,2.21-6.99c0.13-0.39,0.53-0.83,0.91-0.97
			c2.15-0.75,4.33-1.42,6.51-2.08c0.21-0.06,0.48,0.03,0.81,0.05c-0.37,0.96-0.7,1.81-1.02,2.67c-1.06,2.88-2.07,5.78-1.96,8.92
			c0.05,1.49,1.03,2.81,2.56,3.31c0.08-0.38,0.19-0.76,0.23-1.14c0.16-1.68,0.03-3.43,0.5-5.01c0.93-3.18,2.16-6.27,3.33-9.38
			c0.14-0.4,0.58-0.88,0.94-0.95c2.05-0.37,4.13-0.62,6.2-0.94c0.56-0.09,1.11-0.27,1.62-0.39c-2.52-1.75-5.04-0.58-7.6-0.33
			c0.79-1.24,2.18-1,3.3-1.24c1.06-0.23,2.22-0.05,3.35-0.05c-0.12,0.25-0.24,0.48-0.35,0.69c0.77,0,1.47,0,2.37,0
			c0.41-0.59,0.05-1.32-1.22-1.44c-1.21-0.12-2.45,0-3.67,0.09c-1.12,0.08-2.24,0.27-3.65,0.46c0.7-1.65,1.29-3.04,1.91-4.42
			C158.41,155.94,158.74,155.91,158.95,155.88z M153.06,161.04c-0.09,0.2-0.34,0.4-0.55,0.46c-2.39,0.65-4.79,1.28-7.27,1.93
			c0.53-1.57,0.97-2.97,1.48-4.34c0.12-0.33,0.44-0.72,0.75-0.81c2.34-0.67,4.7-1.28,7.06-1.9c0.1,0.15,0.2,0.3,0.3,0.46
			C154.24,158.24,153.67,159.65,153.06,161.04z"></path>
		<path d="M426.62,161.45c-0.1-0.08-0.21-0.15-0.31-0.23c-2,3.14-5.01,4.96-8.35,6.74c0-0.88-0.13-1.56,0.02-2.16
			c0.62-2.44,1.27-4.87,2.01-7.28c0.57-1.87,1.37-3.68,1.91-5.56c0.4-1.38-0.05-1.75-2.56-2.23c-0.31-0.06-0.76,0.68-1.05,0.95
			c-0.59-0.6-1.14-1.49-1.94-1.9c-1.84-0.96-2.91-0.67-4.27,1.13c-3.84,5.08-6.4,10.84-8.56,16.78c-0.55,1.51-0.64,3.05,0.63,4.62
			c1.39,1.73,3.16,2.15,4.52,0.34c1.56-2.06,2.99-4.22,4.49-6.32c0.53-0.74,1.12-1.44,1.87-2.41c0.17,2.75,1,4.75,3.22,5.89
			c0.4,0.21,0.96,0.42,1.36,0.3c2.12-0.64,3.64-2.02,4.78-4.34c-0.86,0.81-1.47,1.37-2.07,1.93c0.65-1.11,1.56-1.98,2.3-2.98
			C425.38,163.68,425.96,162.54,426.62,161.45z M407.75,167.89c0.07,0.13,0.13,0.25,0.2,0.37c-0.4,0.4-0.8,0.8-1.2,1.2
			c0.66-3.26,2.35-6.02,3.79-8.88c0.76-1.52,1.75-2.94,2.77-4.3c0.36-0.47,1.12-0.65,1.79-0.8c-0.39,0.73-1.82,1.03-0.52,2.15
			c0.09,0.07-0.05,0.48-0.16,0.69c-0.43,0.74-0.9,1.46-1.19,2.33c0.87-1.16,1.74-2.31,2.61-3.47
			C415.97,158.96,409.07,167.67,407.75,167.89z M416.38,165.68c-0.13-0.03-0.26-0.05-0.39-0.09c0.3-1.37,0.59-2.74,0.88-4.12
			c0.13,0.03,0.27,0.06,0.4,0.09C416.98,162.94,416.68,164.31,416.38,165.68z"></path>
		<path d="M280.02,170.8c0.04-0.03,0.07-0.07,0.11-0.1c0.02-0.01,0.04-0.03,0.06-0.05c0.03-0.03,0.06-0.05,0.08-0.07
			c0.03-0.04,0.07-0.07,0.1-0.09c0,0,0-0.01,0-0.01c0.93-0.98,0.55-1.71,0.55-1.71c-0.07-0.15-0.3-0.29-0.28-0.41
			c0.38-2.3-1.4-3.12-2.85-4.11c-1.41-0.96-2.94-1.76-4.32-2.76c-0.4-0.29-0.82-1.13-0.67-1.49c1.07-2.51,3.08-4.19,5.35-5.86
			c0.18,3.28,0.98,4.7,2.26,4.55c0.61-0.07,1.66-3.31,2.47-4.88c0.52-1.01,1.19-1.96,1.55-3.02c0.21-0.62,0.22-1.63-0.15-2.07
			c-1.36-1.62-3.92-1.83-5.62-0.49c-1.48,1.16-2.89,2.45-4.19,3.8c-1.29,1.35-2.41,2.87-3.6,4.31c-1.69,2.05-3.83,3.48-6.31,4.79
			c-0.11-2.25-0.08-4.25-0.36-6.21c-0.19-1.3-0.57-2.7-1.3-3.75c-1.57-2.25-4.34-2.1-5.83,0.19c-1,1.53-1.82,3.2-2.76,4.77
			c-1.06,1.75-2.16,3.48-3.26,5.2c-0.33,0.52-0.74,1-1.1,1.5c0.09,0.06,0.17,0.12,0.26,0.18c0.72-0.83,1.43-1.66,2.15-2.5
			c-1.28,3.13-4.23,4.69-6.28,7.11c-0.52-2.42-0.11-4.64,0.37-6.88c0.52-2.43,0.86-4.9,1.27-7.35c0.29-1.74-1.1-2.29-2.21-2.98
			c-1.17-0.72-1.98,0.12-2.78,0.8c-1.13,0.96-2.23,1.95-3.34,2.93c-0.1-0.5-0.03-0.87,0.11-1.22c2.19-5.57,4.4-11.13,6.6-16.7
			c0.32-0.82,0.66-1.62,0.93-2.45c0.92-2.94,0.46-3.55-2.68-3.68c-0.08,0-0.17,0.04-0.34,0.08c-0.34,0.86-0.76,1.76-1.06,2.69
			c-0.23,0.74-0.17,1.57-0.44,2.28c-2.8,7.41-5.64,14.8-8.47,22.2c-0.37,0.98-0.55,2.12-1.19,2.89c-3.43,4.12-6.88,8.23-11.18,11.5
			c-0.51,0.39-1.16,0.6-1.97,1.02c0.55-7.08,3.53-12.68,7.88-18.04c-0.07,1.07-0.18,1.8-0.15,2.53c0.03,0.56-0.04,1.33,0.91,1.29
			c0.9-0.05,1.96,0.08,2.31-1.04c0.51-1.67,0.95-3.37,1.32-5.08c0.11-0.51-0.01-1.15-0.24-1.62c-0.72-1.52-4.55-2.4-5.81-0.46
			c-1.13,1.72-2.37,3.37-3.6,5.03c-0.82,1.12-1.62,2.27-2.57,3.28c-1.39,1.47-2.92,2.81-4.35,4.24c-2.02,2.02-3.95,4.13-6.03,6.08
			c-0.87,0.81-2,1.39-3.1,1.89c-0.83,0.39-1.47,0.05-1.72-0.98c-0.39-1.67,0.08-3.17,0.45-4.37c0.96-0.27,1.69-0.34,2.26-0.68
			c0.83-0.47,1.72-1,2.29-1.73c2.23-2.87,4.48-5.74,6.46-8.78c1.28-1.95,0.47-3.76-1.56-4.88c-1.21-0.67-2.19-0.63-3.19,0.28
			c-0.68,0.63-1.53,1.11-2.05,1.85c-1.34,1.92-2.92,3.11-5.4,2.56c-0.23-0.06-0.51,0.09-0.77,0.13c-1.28,0.21-2.57,0.42-4.04,0.66
			c0.2-0.71,0.33-1.25,0.5-1.77c2.18-6.79,4.35-13.6,6.59-20.37c0.39-1.17-0.01-1.73-0.98-2.16c-1.37-0.59-2.26-0.23-2.7,1.22
			c-1.29,4.26-2.48,8.55-3.82,12.8c-1.17,3.7-2.48,7.35-3.77,11.02c-0.12,0.33-0.54,0.67-0.89,0.8c-2.97,1.06-5.95,2.09-8.93,3.09
			c-1.21,0.41-2.46,0.74-3.86,1.16c0.19-0.67,0.3-1.09,0.43-1.5c2.28-7.08,4.57-14.16,6.83-21.25c0.15-0.47,0.26-1.03,0.15-1.49
			c-0.2-0.82-0.83-1.16-1.71-1.08c-0.81,0.07-1.46,0.13-1.78,1.15c-2.56,8.14-5.19,16.27-7.83,24.38c-0.16,0.48-0.51,1.15-0.91,1.27
			c-2.21,0.65-4.42,1.5-6.79,0.94c-0.44,1.72,0.08,2.68,1.7,2.84c1.46,0.13,2.95,0.03,4.55,0.03c-0.12,0.46-0.27,0.86-0.34,1.28
			c-0.38,2.28-0.96,4.55-1.07,6.84c-0.1,2.19,1.21,3.11,3.47,2.8c-0.58-3.94,0.88-7.57,1.87-11.28c0.12-0.47,0.53-1.05,0.95-1.22
			c3.14-1.23,6.3-2.39,9.48-3.52c1-0.36,2.07-0.55,3.16-0.84c-0.45,1.51-0.81,2.81-1.22,4.09c-0.27,0.86-0.62,1.69-0.91,2.54
			c-0.19,0.53-0.31,1.09-0.53,1.6c-0.49,1.19-1.13,2.34-1.49,3.57c-0.32,1.07,0.34,2.26-0.9,3.3c-0.73,0.6-0.77,2.08-1.01,3.18
			c-0.17,0.75,0.03,1.61-0.26,2.28c-1.4,3.26-1.61,6.67-1.24,10.11c0.06,0.5,1.03,1.14,1.67,1.28c0.77,0.15,1.14-0.5,1.17-1.36
			c0.04-1.13,0.14-2.28,0.41-3.39c1.17-4.94,2.42-9.86,3.62-14.79c0.11-0.47,0.11-0.97,0.17-1.46c0.43-0.58,0.76-1.25,1.05-1.92
			c0.46-1.07,0.5-2.25,1.05-3.33c0.84-1.68,1.58-3.46,1.97-5.28c0.43-2.01,1.61-2.81,3.42-3.22c1.43-0.33,2.82-0.83,4.22-1.25
			c-0.03-0.11-0.06-0.23-0.08-0.34c-0.52,0.06-1.05,0.12-1.57,0.17c-0.01-0.11-0.03-0.23-0.04-0.33c1.11-0.16,2.22-0.33,3.51-0.51
			c-0.8,2.1-1.42,3.95-2.21,5.73c-0.43,0.99-1.24,1.75-1.56,2.89c-0.67,2.35-0.76,4.63,0.39,6.78c1.88,3.51,3.77,3.92,6.84,2.34
			c0.2-0.1,0.38-0.22,0.57-0.32c3.03-1.46,4.25-4.57,6.31-6.91c0.09-0.1,0.07-0.32,0.09-0.47c-0.1-0.09-0.2-0.17-0.3-0.25
			c-1.38,1.3-2.76,2.61-4,3.78c1.8-1.92,3.73-3.98,5.66-6.03c0.09,0.08,0.17,0.15,0.26,0.23c-0.47,0.61-0.94,1.21-1.49,1.93
			c1.36,0.43,0.44,1.21,0.29,1.8c-0.67,2.64-0.22,5.1,1.15,7.39c0.59,0.99,2.81,1.98,3.71,1.49c1.36-0.74,2.68-1.64,3.78-2.71
			c1.6-1.56,3-3.33,4.48-5.01c0.06,0.04,0.12,0.08,0.18,0.13c-0.41,1.73-0.82,3.46-1.13,4.8c1.05,0.93,1.12,2.72,2.9,2.36
			c0.3-1.13,0.54-2.37,0.96-3.54c0.59-1.64,1.46-3.2,1.97-4.86c1.44-4.73,4.3-8.47,7.83-11.79c0.31-0.3,0.69-0.53,1.28-0.96
			c-0.09,0.79-0.14,1.21-0.19,1.65c-0.14,1.27-0.96,2.36-0.34,3.87c0.35,0.84-0.45,2.17-0.74,3.28c-0.69,2.56,0.55,5.79,2.71,7.33
			c0.84,0.6,1.6,0.66,2.39,0.07c0.93-0.69,1.82-1.45,2.81-2.25c0.02,0.27,0.07,0.52,0.06,0.76c-0.12,2.16,1.2,3.42,2.85,4.41
			c1.12,0.68,2.78,0.44,3.84-0.78c1.29-1.47,2.47-3.08,3.46-4.77c1-1.71,2.35-2.77,4.24-3.23c2.34-0.58,4-2.06,5.32-4.02
			c0.13,0.33,0.26,0.66,0.38,0.98c0.66,1.71,1.53,3.16,3.36,3.96c1.12,0.49,2.06,1.39,3.17,2.17c-2.11,2.1-4.75,2.64-7.3,3.47l0,0
			c-1.76,0.55-2.24,0.41-2.24,0.41c-0.24,0.02-0.42-0.01-0.57-0.06c-0.01-0.01-0.03-0.01-0.04-0.02c-0.3-0.14-0.4-0.42-0.42-0.66
			c0.33-2.96,4.53-5.52,4.22-5.94c-0.47-0.63-2.92,0.86-4.04,1.75c-0.61,0.5-1.26,0.96-1.84,1.49c-0.26,0.23-0.39,0.61-0.6,0.92
			c-0.88,1.34,0.01,2.59,0.11,3.9c0.11,1.51,1.06,1.92,2.2,2.16c0.8,0.17,1.67,0.23,2.47,0.11c1.34-0.2,2.78-0.33,3.92-0.97
			c1.05-0.59,2.65,0.1,3.23-1.43c0.01-0.01,0.07,0.01,0.12,0.01C278.16,172.24,279.15,171.57,280.02,170.8L280.02,170.8z
			 M179.37,160.24c-0.16-0.04-0.32-0.08-0.48-0.12c1.02-3.08,2.04-6.15,3.07-9.23c0.11,0.03,0.21,0.07,0.32,0.1
			C181.31,154.06,180.34,157.15,179.37,160.24z M191.99,169.99c-1.68,6.1-3.39,12.19-5.07,18.3c-0.19,0.68-0.18,1.41-0.5,2.1
			c0-1-0.21-2.05,0.03-2.98c1.57-6.05,3.24-12.07,4.9-18.1c0.05-0.2,0.17-0.37,0.26-0.56c0.13,0.01,0.26,0.02,0.4,0.02
			C192,169.18,192.09,169.61,191.99,169.99z M210.18,155.35c1.17-1.48,2.63-2.74,3.96-4.09c0.12,0.11,0.24,0.22,0.36,0.33
			c-1.95,3.35-4.55,6.19-7.23,8.96c-0.11-0.07-0.22-0.14-0.33-0.21C208.01,158.66,208.96,156.9,210.18,155.35z M217.43,168.99
			c0.57-6.2,4.16-10.99,7.38-15.96C222.33,158.34,218.92,163.21,217.43,168.99z M227.59,167.66c-0.08-0.1-0.15-0.2-0.23-0.31
			c1.4-1.32,2.79-2.64,4.18-3.96c0.1,0.1,0.19,0.21,0.29,0.31C230.41,165.02,229,166.34,227.59,167.66z M235.2,158.11
			c-0.18-0.1-0.36-0.19-0.53-0.29c2.4-6.28,4.79-12.56,7.19-18.83c0.18,0.07,0.37,0.13,0.55,0.21
			C240,145.5,237.6,151.8,235.2,158.11z M244.33,161.43c-0.64-2.02,0.54-3.37,0.74-4.91c0.14,0.03,0.27,0.06,0.41,0.09
			C245.12,158.11,244.76,159.62,244.33,161.43z M254.08,170.75c-0.62-3.77,0.75-6.87,1.98-10.17c1.1,1.16,2.07,2.19,3.16,3.33
			C258.18,166.5,256.26,168.59,254.08,170.75z M261.28,158.23c-0.47,1.36,0.44,3.02-1.01,4.19c-2.7-1.94-2.28-6.85,0.72-8.74
			C261.67,155.19,261.78,156.78,261.28,158.23z M262.64,158.38c0.09-1.83,0.18-3.67,0.27-5.51
			C263.07,154.72,263.86,156.58,262.64,158.38z M275.05,153.55c-1.17,1.55-2.24,2.96-3.28,4.34
			C271.59,156.68,273.6,153.85,275.05,153.55z M268.52,173.57c1.63-0.1,3.09-0.44,3.33-2.1c1.11,0,2.05,0,3.01,0
			c0.2-0.9,0.41-0.93,1.4-0.11C274.2,172.8,270.78,174.44,268.52,173.57z"></path>
		<path d="M337.13,161.24c-0.52,0.63-0.99,1.29-1.46,1.95c-0.01,0.01-0.02,0.02-0.02,0.02v0c-1.46,2.08-2.79,4.24-4.75,5.93
			c-0.16-0.79-0.31-1.54-0.13-2.19c0.57-2.09,1.38-4.11,1.89-6.21c0.59-2.42,1.08-4.88,1.41-7.35c0.25-1.89-2.01-3.39-3.74-2.58
			c-0.62,0.3-1.15,0.79-1.72,1.19c-0.54,0.38-1.09,0.76-1.68,1.16c-0.88-2.55-1.9-2.78-3.56-0.95c-0.38,0.42-0.74,0.88-1.01,1.37
			c-0.74,1.34-1.52,2.68-2.1,4.09c-1.34,3.24-2.62,6.49-3.82,9.78c-0.57,1.56-1.64,3.23,0.25,4.67
			c-10.13,0.63-16.18,3.04-16.18,3.04c-0.06,0.02-0.12,0.04-0.17,0.06c-3.15,0.9-6.3,1.81-9.45,2.71c-0.26,0.08-0.55,0.07-0.96,0.11
			c0.19-0.57,0.3-1,0.47-1.39c2.71-6.18,6.13-11.96,9.89-17.55c0.26-0.38,0.8-0.7,1.26-0.79c2.53-0.49,5.08-0.91,7.63-1.33
			c1.88-0.31,3.76-0.59,5.64-0.89c-2.43-1.5-4.93-0.63-7.4-0.7c3.02-1.76,6.2-0.86,9.35-0.54c-4.18-1.91-8.55-0.71-13.32-0.63
			c2.74-3.69,5.24-7.17,7.86-10.55c0.71-0.91,0.91-1.87,0.59-2.79c-0.15-0.42-1.11-0.56-1.7-0.82c-0.24-0.1-0.49-0.19-0.76-0.29
			c3.1-1.69,15.45-4.11,19.49-3.83c0,0.31,0,0.63,0,0.87c1.12-0.08,2.16-0.15,3.26-0.22c0.45-1.24-0.59-1.75-1.19-2.51
			c-4.94,0.75-9.86,1.5-14.78,2.25c1.11-0.45,1.94-0.83,2.35-0.89c1.05-0.18,1.05-0.09,1.93-0.13c0.88-0.04,1.41-0.63,1.41-0.63
			c0.62-0.11,1.18-0.21,1.68-0.3l0,0c4.67-0.74,6.37-0.68,6.67-0.93c0.1-0.35-1.7-0.44-2.57-0.57c-0.12-0.02-0.28-0.02-0.47-0.02
			c-0.36,0-0.68,0.02-0.95,0c-0.87-0.06-1.91,0.12-1.91,0.12c-3.38,0.35-3.8,0.63-3.8,0.63c-2.88-0.52-13.09,2.94-13.09,2.94l0,0
			c-3.3,1.03-6.47,2.51-10.05,2.3c-0.03,2.36,1.37,3.69,3.52,3.27c1.67-0.33,3.27-0.94,4.91-1.41c0.9-0.26,1.81-0.48,2.91-0.77
			c-3.33,5.28-6.49,10.3-9.71,15.41c-0.3,0.05-0.73,0.1-1.16,0.19c-1.92,0.39-3.84,0.8-5.76,1.2c-0.97,0.2-1.52,1.19-1.38,2.36
			c0.14,1.15,0.79,1.61,1.88,1.46c0.56-0.07,1.11-0.3,1.67-0.36c0.51-0.06,1.04-0.01,1.65-0.01c-1.21,2.08-2.34,3.98-3.44,5.89
			c-0.79,1.37-1.63,2.71-2.32,4.13c-0.94,1.96-1.71,4-2.65,5.95c-0.27,0.56-0.8,1.09-1.35,1.4c-1.88,1.03-3.84,1.9-5.71,2.95
			c-0.37,0.2-0.66,0.89-0.65,1.35c0.03,1.31,1.2,2.04,2.84,1.65c2.45-0.57,4.9-0.95,7.35-1.75c7.89-2.59,15.83-5.17,24.14-6.15
			c2.07-0.24,4.16-0.27,6.24-0.39c0.02,0.1,0.03,0.21,0.05,0.32c-0.26,0.19-0.52,0.38-0.49,0.36c1.65,0,3.54,0,5.59,0
			c-1.11-2.92-3.53-3.4-6.06-3.61c1.16-2.11,2.25-4.05,3.29-6.02c1.07-2.01,2.02-4.09,3.16-6.05c1.11-1.89,2.4-3.67,3.6-5.5
			c-0.06-0.03-0.13-0.07-0.2-0.1c0.43-0.22,0.87-0.43,1.42-0.71c-0.11,0.45-0.19,0.79-0.27,1.12c-0.84,3.94-1.63,7.88-2.53,11.81
			c-0.48,2.08,0.27,3.48,1.9,4.7c0.98,0.73,1.79,0.76,2.72,0.08c0.5-0.37,0.96-0.76,1.36-1.19l0,0c1.5-1.5,2.49-3.74,2.49-3.74
			c2.96-5.93,2.5-7.08,2.5-7.08C338.98,159.01,338.02,160.1,337.13,161.24z M303.93,150.01c0.1,0.07,0.2,0.13,0.3,0.2
			c-1.06,1.59-2.12,3.18-3.19,4.76c-0.13-0.09-0.26-0.17-0.39-0.26C301.75,153.16,302.84,151.59,303.93,150.01z M288.21,176.57
			c1.29-2.74,2.58-5.48,3.87-8.22c0-0.05,0-0.1,0.01-0.14c0.06-0.06,0.11-0.12,0.17-0.19c1.6-2.63,3.2-5.27,4.81-7.9
			c0.12,0.07,0.24,0.14,0.37,0.22c-0.82,1.4-1.64,2.8-2.46,4.19c-0.32,0.53-0.59,1.11-0.98,1.59c-0.54,0.67-1.15,1.28-1.74,1.9
			c-0.04,0.08-0.09,0.15-0.14,0.23c-0.02,0.03-0.03,0.07-0.05,0.1c-0.05,0.54-0.05,1.08-0.17,1.59c-0.37,1.48-1.67,2.52-1.75,4.24
			C290.13,175.04,289.08,175.85,288.21,176.57z M321.13,172.91c0.25,0.46,0.42,0.78,0.51,0.95c-3.4,0.42-6.78,0.78-10.14,1.27
			c-1.5,0.22-2.95,0.73-4.45,1c-0.35,0.07-0.78-0.28-1.48-0.56c-0.29,0.07-0.95,0.23-1.62,0.4c0.03,0.1,0.05,0.2,0.07,0.29
			c0.51-0.08,1.01-0.17,1.53-0.25c-0.35,0.43-0.76,0.65-1.19,0.69c-0.59,0.06-1.23-0.17-1.77-0.01c-1.43,0.43-2.78,1.08-4.22,1.48
			c-0.88,0.24-1.84,0.18-2.76,0.26c-0.03-0.15-0.06-0.29-0.09-0.45c0.43-0.16,0.86-0.31,1.47-0.54c-0.21-0.13-0.45-0.42-0.62-0.37
			c-0.81,0.21-1.61,0.5-2.4,0.79c-0.15,0.06-0.36,0.24-0.35,0.36c0.14,1.36-0.86,0.76-1.32,0.9c0.14-1.55,1.44-1.72,2.57-2.04
			c1.15-0.32,2.31-0.64,3.47-0.96c0.23,0.13,1.26,0.03,1.41,0c0.26-0.04,0.61-0.22,1.45-0.35c0.83-0.13,0.88-0.22,1.54-0.6
			c0.66-0.38,0.22-0.01,0.57-0.19c0.35-0.17,0.26,0.05,2.11-0.04c0.31-0.02,0.53-0.03,0.67-0.03c-0.02,0,0.01,0,0.12-0.02
			c0.57-0.04,1.05-0.13,1.05-0.13l2.4-0.22c1.26-0.17,1.33-0.53,1.33-0.53c5.51-0.63,7.23-0.96,7.69-1.14
			C319.55,172.85,320.37,172.81,321.13,172.91z M328.65,154.89c-0.58,0.66-1.11,1.36-1.67,2.04c-0.61,0.73-1.31,1.38-1.81,2.17
			c-0.41,0.64-0.58,1.44-0.86,2.17c-0.18-0.08-0.36-0.16-0.55-0.24c1-3.21,2.74-5.94,5.33-8.24c0.24,0.32,0.41,0.53,0.76,1.01
			C328.19,153.22,329,154.48,328.65,154.89z M331.26,162.61c-0.24,0.99-0.48,1.98-0.73,2.97
			C330.41,162.89,330.41,162.89,331.26,162.61z"></path>
		<path d="M306.1,174.91C306.14,174.91,306.62,174.88,306.1,174.91L306.1,174.91z"></path>
	</g>
</g>
</svg>